HIERARCHY
ROOT Hips
{
	OFFSET -3.958830 18.904000 13.208200
	CHANNELS 6 Xposition Yposition Zposition Zrotation Yrotation Xrotation 
	JOINT LHipJoint
	{
		OFFSET 0.000000 0.000000 0.000000
		CHANNELS 3 Zrotation Yrotation Xrotation
		JOINT LeftUpLeg
		{
			OFFSET 1.800000 -1.400000 0.085000
			CHANNELS 3 Zrotation Yrotation Xrotation
			JOINT LeftLeg
			{
				OFFSET 2.215000 -6.000000 0.000000
				CHANNELS 3 Zrotation Yrotation Xrotation
				JOINT LeftFoot
				{
					OFFSET 2.500000 -6.900000 0.000000
					CHANNELS 3 Zrotation Yrotation Xrotation
					JOINT LeftToeBase
					{
						OFFSET 0.200000 -0.500000 1.950000
						CHANNELS 3 Zrotation Yrotation Xrotation
						End Site
						{
							OFFSET 0.000000 0.000000 0.000000
						}
					}
				}
			}
		}
	}
	JOINT RHipJoint
	{
		OFFSET 0.000000 0.000000 0.000000
		CHANNELS 3 Zrotation Yrotation Xrotation
		JOINT RightUpLeg
		{
			OFFSET -1.800000 -1.400000 0.085000
			CHANNELS 3 Zrotation Yrotation Xrotation
			JOINT RightLeg
			{
				OFFSET -2.215000 -6.000000 0.000000
				CHANNELS 3 Zrotation Yrotation Xrotation
				JOINT RightFoot
				{
					OFFSET -2.500000 -6.900000 0.000000
					CHANNELS 3 Zrotation Yrotation Xrotation
					JOINT RightToeBase
					{
						OFFSET -0.200000 -0.500000 1.950000
						CHANNELS 3 Zrotation Yrotation Xrotation
						End Site
						{
							OFFSET 0.000000 0.000000 0.000000
						}
					}
				}
			}
		}
	}
	JOINT LowerBack
	{
		OFFSET 0.000000 0.000000 0.000000
		CHANNELS 3 Zrotation Yrotation Xrotation
		JOINT Spine
		{
			OFFSET -0.087000 1.940000 -0.288900
			CHANNELS 3 Zrotation Yrotation Xrotation
			JOINT Spine1
			{
				OFFSET 0.000000 1.950000 0.060000
				CHANNELS 3 Zrotation Yrotation Xrotation
				JOINT Neck
				{
					OFFSET 0.000000 0.000000 0.000000
					CHANNELS 3 Zrotation Yrotation Xrotation
					JOINT Neck1
					{
						OFFSET 0.000000 1.600000 0.340000
						CHANNELS 3 Zrotation Yrotation Xrotation
						JOINT Head
						{
							OFFSET 0.000000 1.667000 -0.240000
							CHANNELS 3 Zrotation Yrotation Xrotation
							End Site
							{
								OFFSET 0.000000 0.000000 0.000000
							}
						}
					}
				}
				JOINT LeftShoulder
				{
					OFFSET 0.000000 0.000000 0.000000
					CHANNELS 3 Zrotation Yrotation Xrotation
					JOINT LeftArm
					{
						OFFSET 2.700000 1.550000 -0.730000
						CHANNELS 3 Zrotation Yrotation Xrotation
						JOINT LeftForeArm
						{
							OFFSET 5.450000 0.000000 0.000000
							CHANNELS 3 Zrotation Yrotation Xrotation
							JOINT LeftHand
							{
								OFFSET 3.450000 0.000000 0.000000
								CHANNELS 3 Zrotation Yrotation Xrotation
								JOINT LeftHandIndex1
								{
									OFFSET 0.750000 0.000000 0.000000
									CHANNELS 3 Zrotation Yrotation Xrotation
									End Site
									{
										OFFSET 0.000000 0.000000 0.000000
									}
								}
							}
						}
					}
				}
				JOINT RightShoulder
				{
					OFFSET 0.000000 0.000000 0.000000
					CHANNELS 3 Zrotation Yrotation Xrotation
					JOINT RightArm
					{
						OFFSET -2.700000 1.550000 -0.730000
						CHANNELS 3 Zrotation Yrotation Xrotation
						JOINT RightForeArm
						{
							OFFSET -5.450000 0.000000 0.000000
							CHANNELS 3 Zrotation Yrotation Xrotation
							JOINT RightHand
							{
								OFFSET -3.450000 0.000000 0.000000
								CHANNELS 3 Zrotation Yrotation Xrotation
								JOINT RightHandIndex1
								{
									OFFSET -0.750000 0.000000 0.000000
									CHANNELS 3 Zrotation Yrotation Xrotation
									End Site
									{
										OFFSET 0.000000 0.000000 0.000000
									}
								}
							}
						}
					}
				}
			}
		}
	}
}
MOTION
Frames: 14
Frame Time: 0.016667
-0.123950 17.561370 -3.201960 -16.663277 -26.730890 -9.529396 -15.279629 14.072102 2.700944 19.787037 -1.842983 2.448117 -8.324552 8.096820 14.431943 0.405783 5.678611 2.575791 0.793790 0.737020 0.667600 18.169294 -8.859585 3.980691 -3.869470 4.885315 -38.436851 11.825571 -22.650763 63.864061 -2.457176 -11.004404 0.720950 0.100930 -0.466980 0.214750 -3.069654 -5.493516 -8.350250 9.578468 -11.929441 44.481377 -2.343985 -9.017146 7.154440 2.824592 -7.241010 -14.311950 -30.446086 17.836595 50.319998 -5.844220 10.445360 -31.940930 -28.494847 -18.564021 7.783911 -38.778547 -18.101339 -6.835558 133.971381 -66.258705 -134.705527 -3.285955 2.883383 0.800790 -0.474650 0.678770 0.178070 24.019452 18.221013 9.401752 52.763192 -5.246633 -19.949253 17.025253 40.659450 2.007744 2.199189 -1.342894 0.250170 0.083800 -0.384880 -0.142280 
-0.163400 17.554550 -3.200610 -15.756456 -26.881798 -9.816954 -15.334063 14.310505 2.780540 19.178984 -1.726562 2.331356 -8.146938 8.050169 14.548652 0.400128 5.655776 2.582168 0.790910 0.723950 0.687320 18.087138 -8.938423 3.760459 -3.850942 4.283120 -36.041001 11.670496 -21.149597 60.730965 -2.276291 -10.269797 0.909437 0.093080 -0.478120 0.218690 -2.788177 -5.897403 -8.327700 7.083867 -10.533056 43.873804 -0.790069 -8.333959 7.351580 2.533379 -6.904071 -14.273488 -30.042352 17.687193 51.324384 -5.634550 10.565650 -32.154070 -28.459126 -18.190737 7.791803 -40.313688 -18.620951 -6.324592 133.042103 -66.441698 -133.629699 -3.308754 2.832472 0.815280 -0.480320 0.686650 0.162190 24.578772 18.102678 9.363968 52.617750 -5.359189 -19.989591 16.370673 40.190062 1.780054 2.197178 -1.332472 0.246640 0.077570 -0.382750 -0.156230 
-0.241850 17.535760 -3.186520 -14.161244 -27.246537 -10.247708 -15.435645 14.722100 2.913229 18.153084 -1.510250 2.118484 -7.791031 7.985230 14.842875 0.380464 5.618902 2.590875 0.789240 0.713000 0.703570 17.941033 -9.094059 3.348882 -3.761557 3.248278 -31.457666 11.306854 -18.436115 54.709299 -1.944496 -8.899936 1.298033 0.091550 -0.490190 0.215620 -2.279832 -6.576415 -8.263202 2.805307 -8.244972 42.062868 1.792426 -7.072771 7.841660 1.987741 -6.326167 -14.086337 -29.487015 17.588556 52.902086 -5.277340 10.850690 -32.041120 -28.334784 -17.211308 7.703417 -42.974256 -19.395397 -5.172970 131.667355 -67.155350 -132.270805 -3.335542 2.769031 0.836010 -0.482410 0.690490 0.149180 25.533415 17.543015 9.194982 52.153477 -5.555670 -19.759529 15.326897 38.936105 1.435649 2.183905 -1.319053 0.233690 0.072380 -0.381030 -0.178210 
-0.341690 17.502620 -3.166360 -11.978039 -28.211581 -10.699780 -15.585714 15.169211 3.038086 16.695664 -1.257044 1.784070 -7.553024 8.026701 15.671446 0.352755 5.635565 2.586404 0.770380 0.675150 0.724370 17.757906 -9.233585 2.900258 -3.974474 2.246117 -26.211622 10.816301 -15.302365 47.253772 -1.557436 -7.279704 1.786408 0.085380 -0.488060 0.211410 -1.605380 -7.361532 -8.179246 -2.725664 -5.408079 39.136341 4.991496 -5.195136 8.583870 1.259521 -5.595827 -13.610031 -28.248158 17.180188 54.557571 -4.833880 11.271680 -31.722470 -28.196698 -15.737817 7.373198 -46.126500 -20.103700 -3.594854 130.891119 -68.428841 -131.993700 -3.358158 2.732651 0.861180 -0.473560 0.684890 0.125190 26.758492 16.723550 8.988769 51.242761 -5.811734 -19.166186 14.382160 37.009443 1.147627 2.170436 -1.294985 0.200960 0.075950 -0.369050 -0.209810 
-0.438850 17.466150 -3.142400 -10.107614 -29.952211 -10.838599 -15.732127 15.511186 3.120159 15.434334 -0.974902 1.471891 -7.377219 8.096161 16.437490 0.331370 5.661678 2.576285 0.759690 0.653000 0.738100 17.602918 -9.340106 2.508810 -4.080123 1.530815 -20.945477 9.922515 -12.230764 39.561307 -1.213426 -5.722858 2.303575 0.084800 -0.478610 0.208390 -0.964411 -7.975359 -8.057072 -7.539371 -2.849938 35.382182 8.020986 -3.097530 9.585661 0.581912 -4.919974 -13.250540 -27.173354 17.124792 56.223224 -4.121760 11.800020 -31.087800 -28.387501 -14.587876 7.201295 -48.919029 -20.316253 -2.257337 129.159754 -70.283925 -131.173441 -3.385780 2.684104 0.880610 -0.459910 0.680070 0.112880 28.189508 16.307270 9.072617 50.000309 -6.371700 -18.537288 12.978128 35.104630 0.791239 2.141720 -1.280581 0.174440 0.084190 -0.360540 -0.233240 
-0.526920 17.428560 -3.125860 -8.787210 -32.272730 -10.754737 -15.858441 15.642142 3.180597 14.989937 -0.802017 1.478403 -8.174337 8.435095 16.844997 0.338293 5.816169 2.513317 0.745260 0.626770 0.756910 17.504304 -9.335945 2.260610 -3.781570 1.206827 -16.510537 8.983049 -9.692783 32.417942 -0.965107 -4.473759 2.740934 0.077180 -0.481880 0.209920 -0.452891 -8.329244 -7.964459 -11.139562 -0.773417 31.634477 10.452716 -1.126386 10.676633 0.190616 -4.206953 -13.013756 -25.825044 16.986040 58.282568 -4.247190 12.486610 -30.603190 -28.982070 -14.015092 7.245105 -50.781662 -20.148748 -1.367702 127.837631 -71.516151 -130.414824 -3.416275 2.637693 0.898050 -0.448810 0.679240 0.089040 29.486869 16.270086 9.317013 48.896583 -6.819147 -17.835289 11.425793 33.172037 0.464693 2.121438 -1.261831 0.156070 0.082430 -0.345800 -0.260450 
-0.607750 17.379520 -3.111270 -8.070364 -34.481250 -10.197213 -15.936922 15.625688 3.189478 15.054510 -0.776643 1.098666 -9.252779 8.889543 17.531738 0.363068 5.995814 2.444894 0.748050 0.620890 0.766620 17.460683 -9.280046 2.174345 -3.347288 0.983864 -12.927828 8.583317 -7.923335 25.897150 -0.826101 -3.625497 3.054257 0.077150 -0.478800 0.217770 -0.143406 -8.441454 -7.891079 -13.081377 0.504004 28.203519 12.218645 0.307656 11.279719 -0.155498 -3.916307 -12.855577 -25.582875 17.250591 59.478779 -3.956260 12.856290 -29.704120 -29.338782 -13.293468 7.291641 -52.505706 -19.677213 -0.592004 124.732991 -72.516666 -127.179131 -3.467813 2.513632 0.906650 -0.441690 0.683490 0.092630 30.584513 16.041125 9.484803 48.002284 -7.197261 -16.979765 9.744956 31.056689 0.177736 2.120009 -1.256537 0.150240 0.077760 -0.350140 -0.268040 
-0.675420 17.340200 -3.108300 -7.404311 -36.458738 -9.797069 -15.983482 15.542027 3.150751 14.918125 -0.672678 0.845691 -9.897141 9.181470 18.001269 0.363184 6.082449 2.400944 0.755970 0.631500 0.777550 17.448269 -9.233941 2.176293 -3.224545 0.709701 -9.937460 8.339887 -6.689134 20.197296 -0.762283 -3.121757 3.247276 0.088660 -0.486090 0.212780 0.033953 -8.378271 -7.817327 -14.561504 1.581948 25.237306 13.566939 1.452742 12.022292 -0.532957 -3.608495 -13.061503 -25.242904 17.729348 61.185041 -3.477870 13.429150 -29.048150 -29.751169 -13.461431 7.698054 -53.256044 -19.093930 -0.352480 122.375958 -73.133439 -124.838257 -3.510868 2.382504 0.920380 -0.441220 0.690710 0.089620 31.860844 16.521420 9.805767 47.401215 -7.355333 -16.062038 7.346857 28.507613 -0.227688 2.125664 -1.233549 0.141440 0.079410 -0.353230 -0.280380 
-0.729180 17.308170 -3.106500 -6.763643 -37.948000 -9.597439 -16.000467 15.460286 3.080680 14.529421 -0.539299 0.636191 -9.911901 9.254452 18.426340 0.349926 6.071349 2.390966 0.775890 0.651670 0.800430 17.451731 -9.212979 2.231295 -3.518765 0.394325 -7.491643 8.389956 -5.981727 15.703227 -0.763295 -2.911586 3.332365 0.099120 -0.501740 0.212820 0.106861 -8.259551 -7.753060 -15.527175 2.217853 23.231139 14.387620 2.124892 12.391588 -0.855787 -3.583167 -13.322858 -25.569960 18.408509 62.617857 -3.172660 13.771490 -29.379640 -30.461600 -13.683483 8.079482 -53.352330 -18.169087 -0.688039 121.741753 -73.468299 -124.522776 -3.516780 2.336038 0.940470 -0.452600 0.708210 0.084990 33.375594 17.084162 9.967011 46.545358 -6.985606 -14.670379 4.738942 24.967143 -0.517698 2.159872 -1.183296 0.143150 0.084450 -0.358790 -0.290420 
-0.778340 17.290060 -3.111820 -6.754494 -39.235446 -9.185519 -15.994691 15.353105 3.016747 14.652716 -0.444188 0.491200 -9.838565 9.273960 18.609719 0.324870 6.052151 2.375973 0.794340 0.680430 0.817250 17.467741 -9.204528 2.337428 -3.474790 0.157879 -5.429161 8.430624 -5.532788 12.273093 -0.797507 -2.862868 3.350216 0.117780 -0.518970 0.210650 0.095393 -8.036882 -7.738089 -15.447928 2.578088 22.054721 14.507049 2.636112 12.885808 -1.024541 -3.604798 -13.960858 -26.035331 19.353727 64.325473 -3.090550 14.277330 -29.509660 -31.781338 -14.687998 8.694576 -52.323133 -17.387795 -1.423207 121.991206 -73.062354 -124.668101 -3.523585 2.304167 0.958070 -0.463430 0.728940 0.078400 35.204453 18.372515 10.357611 45.482474 -6.643542 -13.067879 2.337458 20.924193 -0.659135 2.202768 -1.126399 0.144280 0.094180 -0.358430 -0.298430 
-0.823310 17.278600 -3.120680 -6.685722 -40.249709 -8.960035 -15.996228 15.278541 2.969598 14.747465 -0.302413 0.549873 -9.810643 9.257075 18.459322 0.307015 6.033837 2.372935 0.819710 0.700250 0.857970 17.481543 -9.167190 2.412514 -3.498140 -0.022937 -3.845368 8.457817 -5.277191 9.941644 -0.841579 -2.875917 3.345569 0.125040 -0.541000 0.212680 0.084725 -7.927464 -7.734094 -15.460359 2.980796 21.582055 14.412675 3.067324 13.669699 -1.105854 -3.684296 -14.456188 -26.454249 20.040971 65.059396 -3.404510 14.681600 -30.878610 -32.194464 -15.633218 9.170636 -51.836800 -17.343629 -1.964645 121.701802 -72.414522 -123.907091 -3.543010 2.225746 0.983950 -0.480970 0.750350 0.065780 35.769713 19.593886 10.686479 45.316497 -5.773240 -12.153785 0.679680 18.654612 -0.713368 2.237685 -1.078821 0.148040 0.103950 -0.362580 -0.313910 
-0.858620 17.284940 -3.125560 -7.041453 -40.963400 -8.484403 -15.965961 15.221095 2.934097 14.974608 -0.178184 0.571699 -9.482979 9.130361 18.223897 0.258917 5.993794 2.380714 0.818410 0.686540 0.875820 17.506619 -9.172622 2.516337 -3.410770 -0.161234 -2.694933 8.734348 -5.165158 8.220016 -0.878579 -2.922124 3.326029 0.124760 -0.548920 0.208250 -0.015774 -7.748435 -7.771063 -14.370116 3.029932 21.942388 13.382217 3.367875 14.049938 -0.948202 -3.783015 -15.064451 -27.377453 21.101363 65.624959 -4.007720 14.992080 -31.831400 -33.042949 -16.691464 9.695649 -50.467210 -17.257227 -2.749095 120.493563 -71.580723 -121.508700 -3.607820 2.031438 1.018580 -0.493120 0.758980 0.047560 36.295492 20.811070 11.135476 45.484636 -5.241093 -12.076051 -1.214007 18.253406 -0.890770 2.243378 -1.047517 0.129820 0.126360 -0.344580 -0.333450 
-0.896050 17.294050 -3.134100 -6.951284 -41.437770 -7.891522 -15.926229 15.167321 2.916657 14.785985 -0.124679 0.211809 -9.341642 9.000843 18.041241 0.221929 5.911186 2.395690 0.802840 0.671620 0.847760 17.536271 -9.196485 2.597868 -3.500180 -0.221665 -2.380929 8.993348 -5.028185 6.846531 -0.877195 -2.944906 3.317761 0.123930 -0.545420 0.203100 -0.153937 -7.573389 -7.784081 -13.588229 2.876184 22.128801 12.444828 3.410119 13.993153 -0.955926 -4.197181 -15.414916 -28.997824 22.236804 64.484349 -4.422080 15.113460 -31.650040 -33.152567 -17.030836 9.991676 -49.934222 -17.186300 -3.185351 120.260882 -70.565537 -119.943496 -3.644317 1.957021 1.017000 -0.492250 0.741600 0.037040 36.407423 21.371285 11.199324 45.632511 -4.514960 -11.544656 -1.908060 16.999844 -0.882936 2.266496 -1.028724 0.123260 0.122570 -0.320660 -0.333560 
-0.922030 17.312770 -3.147950 -7.155409 -41.774657 -7.191431 -15.861854 15.136467 2.930023 14.735451 -0.108916 -0.063408 -9.164320 8.791263 17.541040 0.198593 5.810986 2.432631 0.801880 0.666200 0.824660 17.578849 -9.244425 2.671281 -3.334346 -0.178159 -2.610447 9.279000 -4.969502 6.345463 -0.873685 -2.936523 3.322126 0.121660 -0.530830 0.209000 -0.355465 -7.405619 -7.811759 -12.188538 2.480472 23.401179 11.135671 3.332429 13.199101 -0.930180 -4.845909 -15.362268 -31.431826 23.634906 62.179070 -4.624730 14.956300 -32.136320 -33.571351 -16.592693 9.791581 -49.366873 -17.113056 -3.632155 119.738775 -69.762030 -117.913254 -3.671614 1.885400 1.013280 -0.494230 0.728340 0.042460 36.702785 21.248039 10.939292 45.183196 -3.737736 -10.881122 -1.270648 15.548372 -0.712691 2.290083 -1.004983 0.127430 0.124950 -0.307120 -0.320980 
